<?xml version="1.0" encoding="utf-8"?>
<!-- Generator: Adobe Illustrator 17.0.2, SVG Export Plug-In . SVG Version: 6.00 Build 0)  -->
<!DOCTYPE svg PUBLIC "-//W3C//DTD SVG 1.1//EN" "http://www.w3.org/Graphics/SVG/1.1/DTD/svg11.dtd">
<svg version="1.1" id="Layer_1" xmlns="http://www.w3.org/2000/svg" xmlns:xlink="http://www.w3.org/1999/xlink" x="0px" y="0px"
	 width="249.755px" height="53.224px" viewBox="0 0 249.755 53.224" enable-background="new 0 0 249.755 53.224"
	 xml:space="preserve">
<g>
	<g>
		<path fill="#088E81" d="M16.2,39.835c5.831-1.534,9.676-6.819,9.629-12.583c0.007-0.377-0.003-0.755-0.032-1.135l-0.029,0
			c-0.018-0.181-0.039-0.362-0.064-0.543c-0.007-0.136-0.011-0.27-0.014-0.402c-0.066-0.435-0.155-0.87-0.27-1.305
			c-1.076-4.09-4.114-7.256-7.939-8.597c-2.426-0.92-5.151-1.119-7.852-0.409c-6.896,1.814-11.016,8.875-9.202,15.772
			S9.304,41.649,16.2,39.835z"/>
		<path fill="#EF6D22" d="M48.979,21.692c0.97-1.665,1.234-3.609,0.742-5.473c-0.492-1.864-1.68-3.425-3.346-4.395
			c-0.794-0.462-1.654-0.766-2.555-0.901c-0.123-0.009-0.241-0.017-0.356-0.024l-0.023-0.002c-0.261-0.017-0.5-0.032-0.732-0.057
			c-2.649-0.285-3.933-0.857-4.797-1.865c0.063,2.406-0.713,4.734-2.232,6.636c-0.76,0.952-1.669,1.751-2.701,2.374l0,0.001
			l-0.121,0.072c-0.053,0.031-0.106,0.061-0.158,0.091l-0.035,0.02c-0.097,0.057-0.195,0.115-0.294,0.175
			c1.359,0.285,2.727,1.372,4.075,3.249c0.137,0.191,0.27,0.394,0.41,0.608c0.058,0.089,0.117,0.179,0.178,0.27l0.018,0.016
			l0.026,0.048c0.56,0.709,1.244,1.301,2.032,1.76c1.105,0.644,2.356,0.984,3.619,0.984c0.416,0,1.107-0.067,1.244-0.122
			c1.154-0.194,2.173-0.747,2.872-1.166C47.545,23.572,48.438,22.622,48.979,21.692z"/>
		<path fill="#BC2026" d="M54.033,1.199c-2.924-1.985-6.903-1.223-8.888,1.7c-0.615,0.906-0.967,1.914-1.071,2.932
			c-0.007,0.077-0.013,0.154-0.02,0.229c0,0.001,0,0.001,0,0.001c-0.149,1.635-0.419,2.793-1.699,3.715
			c0.15,0.019,0.303,0.038,0.464,0.055c0.216,0.023,0.456,0.038,0.688,0.053l0.026,0.002c0.113,0.007,0.228,0.015,0.346,0.023
			l0.067-0.003l0.048,0.016c1.02,0.157,1.993,0.501,2.891,1.024c1.627,0.948,2.853,2.391,3.524,4.121
			c0.41-1.424,1.369-2.082,2.785-2.8l0.001,0c0.067-0.035,0.136-0.068,0.206-0.103c0.907-0.472,1.714-1.171,2.329-2.077
			C57.717,7.163,56.956,3.184,54.033,1.199z"/>
		<path fill="#D7A228" d="M20.471,3.469c-0.712,0.892-1.246,1.89-1.586,2.968l-0.01,0.03c-0.008,0.027-0.017,0.056-0.026,0.085
			v0.064l-0.042,0.073c-1.016,3.202-2.569,5.525-4.621,6.918c5.646,0.26,10.547,4.068,12.214,9.501
			c0.602-1.352,1.779-3.044,4.063-4.711l-0.004-0.066l0.102-0.006c0.473-0.34,0.991-0.679,1.562-1.014l0.051-0.045l0.054-0.016
			l0.118-0.069c0.976-0.571,1.831-1.313,2.543-2.205c1.537-1.925,2.232-4.334,1.958-6.782c-0.083-0.739-0.252-1.455-0.5-2.137
			c-0.054-0.123-0.108-0.247-0.165-0.376l-0.102-0.232l0.017-0.007c-0.586-1.309-1.475-2.471-2.622-3.397l-0.038-0.029
			C31.781,0.697,29.794,0,27.685,0C24.86,0,22.23,1.264,20.471,3.469z"/>
	</g>
	<g>
		<path fill="#231F20" d="M39.925,52.881V33.76h13.532v3.583h-9.46v4.013h9.26v3.584h-9.26v7.94H39.925z"/>
		<path fill="#231F20" d="M67.106,52.881l-3.756-6.794h-2.982v6.794h-4.07V33.76h8.944c3.985,0,6.45,2.609,6.45,6.164
			c0,3.353-2.151,5.188-4.215,5.675l4.329,7.282H67.106z M67.507,39.894c0-1.577-1.232-2.552-2.838-2.552h-4.3v5.16h4.3
			C66.275,42.503,67.507,41.529,67.507,39.894z"/>
		<path fill="#231F20" d="M73.817,43.334c0-5.762,4.215-9.89,10.006-9.89c5.762,0,9.975,4.129,9.975,9.89
			c0,5.763-4.214,9.89-9.975,9.89C78.032,53.224,73.817,49.097,73.817,43.334z M89.614,43.334c0-3.583-2.265-6.278-5.791-6.278
			c-3.555,0-5.82,2.695-5.82,6.278c0,3.555,2.265,6.278,5.82,6.278C87.349,49.612,89.614,46.889,89.614,43.334z"/>
		<path fill="#231F20" d="M109.858,52.881l-9.116-12.47v12.47H96.67V33.76h4.186l8.859,12.012V33.76h4.07v19.121H109.858z"/>
		<path fill="#231F20" d="M121.988,52.881V37.343h-5.59V33.76h15.251v3.583h-5.561v15.538H121.988z"/>
		<path fill="#231F20" d="M134.261,52.881V33.76h4.071v19.121H134.261z"/>
		<path fill="#231F20" d="M142.117,52.881V33.76h13.532v3.583h-9.46v4.013h9.26v3.584h-9.26v4.357h9.46v3.583H142.117z"/>
		<path fill="#231F20" d="M169.642,52.881l-3.756-6.794h-2.982v6.794h-4.07V33.76h8.944c3.985,0,6.45,2.609,6.45,6.164
			c0,3.353-2.151,5.188-4.215,5.675l4.329,7.282H169.642z M170.043,39.894c0-1.577-1.232-2.552-2.838-2.552h-4.3v5.16h4.3
			C168.811,42.503,170.043,41.529,170.043,39.894z"/>
		<path fill="#231F20" d="M191.175,52.881v-8.772h-11.181v8.772h-2.379V33.76h2.379v8.227h11.181V33.76h2.379v19.121H191.175z"/>
		<path fill="#231F20" d="M211.676,52.881l-1.691-4.271h-9.517l-1.691,4.271h-2.723l7.711-19.121h2.953l7.684,19.121H211.676z
			 M205.226,36.196l-4.042,10.32h8.113L205.226,36.196z"/>
		<path fill="#231F20" d="M215.064,43.334c0-5.876,4.328-9.89,9.832-9.89c3.383,0,5.734,1.606,7.252,3.785l-1.978,1.118
			c-1.089-1.634-3.096-2.781-5.274-2.781c-4.186,0-7.367,3.182-7.367,7.769c0,4.53,3.181,7.769,7.367,7.769
			c2.179,0,4.186-1.175,5.274-2.78l2.007,1.089c-1.605,2.208-3.899,3.813-7.282,3.813C219.392,53.224,215.064,49.211,215.064,43.334
			z"/>
		<path fill="#231F20" d="M246.773,52.881l-7.252-8.6l-1.921,2.179v6.421h-2.379V33.76h2.379v9.861l8.457-9.861h2.982l-7.969,9.059
			l8.686,10.062H246.773z"/>
	</g>
</g>
</svg>
